<?xml version="1.0" standalone="no"?><!DOCTYPE svg PUBLIC "-//W3C//DTD SVG 1.1//EN" "http://www.w3.org/Graphics/SVG/1.1/DTD/svg11.dtd"><svg t="1578637440140" class="icon" viewBox="0 0 1024 1024" version="1.1" xmlns="http://www.w3.org/2000/svg" p-id="1029" xmlns:xlink="http://www.w3.org/1999/xlink" width="200" height="200"><defs><style type="text/css"></style></defs><path d="M298.624 570.624v121.92h169.6v70.016H298.56v163.904H226.048v-163.968H56.448V692.48h169.6V570.624C98.56 553.536 0.384 447.872 0.384 320c0-139.84 117.248-253.12 261.952-253.12 144.64 0 261.952 113.28 261.952 253.12 0 127.808-98.176 233.536-225.664 250.624z m499.008-115.52c127.488 17.088 225.728 122.688 225.728 250.624 0.064 139.84-117.056 253.248-261.76 253.248-144.832 0-262.144-113.28-262.208-253.12 0-127.872 98.176-233.6 225.792-250.88l-0.128-256.768-69.312 67.072-51.328-49.472 156.672-151.616 36.288 35.072 120.704 116.48-51.328 49.536-69.248-67.008 0.128 256.832z" p-id="1030"></path></svg>